<?xml version="1.0" encoding="UTF-8" standalone="no"?>
<!DOCTYPE svg PUBLIC "-//W3C//DTD SVG 1.1//EN"
 "http://www.w3.org/Graphics/SVG/1.1/DTD/svg11.dtd">
<!-- Generated by graphviz version 2.38.0 (20140413.2041)
 -->
<!-- Title: %3 Pages: 1 -->
<svg width="495pt" height="1011pt"
 viewBox="0.00 0.00 495.00 1011.00" xmlns="http://www.w3.org/2000/svg" xmlns:xlink="http://www.w3.org/1999/xlink">
<g id="graph0" class="graph" transform="scale(1 1) rotate(0) translate(4 1007)">
<title>%3</title>
<polygon fill="white" stroke="none" points="-4,4 -4,-1007 491,-1007 491,4 -4,4"/>
<!-- f1 -->
<g id="node1" class="node"><title>f1</title>
<image xlink:href="f1.svg" width="107px" height="107px" preserveAspectRatio="xMinYMin meet" x="156.5" y="-1003"/>
<text text-anchor="middle" x="210" y="-945.8" font-family="Times New Roman,serif" font-size="14.00">f1</text>
</g>
<!-- f2 -->
<g id="node2" class="node"><title>f2</title>
<image xlink:href="f2.svg" width="107px" height="65px" preserveAspectRatio="xMinYMin meet" x="39.5" y="-845"/>
<text text-anchor="middle" x="93" y="-808.8" font-family="Times New Roman,serif" font-size="14.00">f2</text>
</g>
<!-- f1&#45;&gt;f2 -->
<g id="edge1" class="edge"><title>f1&#45;&gt;f2</title>
<path fill="none" stroke="black" d="M156.458,-906.592C146.728,-897.713 137.107,-887.988 129,-878 123.065,-870.688 117.572,-862.263 112.757,-853.966"/>
<polygon fill="black" stroke="black" points="115.729,-852.108 107.809,-845.071 109.612,-855.512 115.729,-852.108"/>
<text text-anchor="middle" x="215" y="-866.8" font-family="Times New Roman,serif" font-size="14.00">HEADS HEADS square thru 4</text>
</g>
<!-- f5 -->
<g id="node5" class="node"><title>f5</title>
<image xlink:href="f5.svg" width="107px" height="65px" preserveAspectRatio="xMinYMin meet" x="128.5" y="-497"/>
<text text-anchor="middle" x="182" y="-460.8" font-family="Times New Roman,serif" font-size="14.00">f5</text>
</g>
<!-- f1&#45;&gt;f5 -->
<g id="edge8" class="edge"><title>f1&#45;&gt;f5</title>
<path fill="none" stroke="black" d="M263.538,-916.845C277.622,-906.149 291.511,-893.044 301,-878 316.649,-853.189 315,-842.834 315,-813.5 315,-813.5 315,-813.5 315,-579.5 315,-550.166 319.789,-537.527 301,-515 286.772,-497.941 265.682,-486.668 245.193,-479.26"/>
<polygon fill="black" stroke="black" points="246.127,-475.882 235.533,-476.024 243.903,-482.519 246.127,-475.882"/>
<text text-anchor="middle" x="401" y="-692.8" font-family="Times New Roman,serif" font-size="14.00">HEADS HEADS square thru 2</text>
</g>
<!-- f3 -->
<g id="node3" class="node"><title>f3</title>
<image xlink:href="f3.svg" width="107px" height="65px" preserveAspectRatio="xMinYMin meet" x="28.5" y="-729"/>
<text text-anchor="middle" x="82" y="-692.8" font-family="Times New Roman,serif" font-size="14.00">f3</text>
</g>
<!-- f2&#45;&gt;f3 -->
<g id="edge2" class="edge"><title>f2&#45;&gt;f3</title>
<path fill="none" stroke="black" d="M85.7262,-779.947C84.6149,-774.014 83.6298,-767.84 83,-762 82.2075,-754.651 81.7572,-746.804 81.5253,-739.205"/>
<polygon fill="black" stroke="black" points="85.0221,-738.997 81.3328,-729.065 78.0233,-739.13 85.0221,-738.997"/>
<text text-anchor="middle" x="131" y="-750.8" font-family="Times New Roman,serif" font-size="14.00">right and left thru</text>
</g>
<!-- f11 -->
<g id="node11" class="node"><title>f11</title>
<image xlink:href="f11.svg" width="107px" height="65px" preserveAspectRatio="xMinYMin meet" x="153.5" y="-729"/>
<text text-anchor="middle" x="207" y="-692.8" font-family="Times New Roman,serif" font-size="14.00">f11</text>
</g>
<!-- f2&#45;&gt;f11 -->
<g id="edge15" class="edge"><title>f2&#45;&gt;f11</title>
<path fill="none" stroke="black" d="M146.931,-787.521C158.568,-780.532 170.049,-772.022 179,-762 185.086,-755.187 190.006,-746.845 193.923,-738.45"/>
<polygon fill="black" stroke="black" points="197.236,-739.602 197.926,-729.029 190.794,-736.864 197.236,-739.602"/>
<text text-anchor="middle" x="238.5" y="-750.8" font-family="Times New Roman,serif" font-size="14.00">pass to the center</text>
</g>
<!-- f4 -->
<g id="node4" class="node"><title>f4</title>
<image xlink:href="f4.svg" width="107px" height="65px" preserveAspectRatio="xMinYMin meet" x="28.5" y="-613"/>
<text text-anchor="middle" x="82" y="-576.8" font-family="Times New Roman,serif" font-size="14.00">f4</text>
</g>
<!-- f3&#45;&gt;f4 -->
<g id="edge3" class="edge"><title>f3&#45;&gt;f4</title>
<path fill="none" stroke="black" d="M82,-663.745C82,-651.268 82,-636.77 82,-623.452"/>
<polygon fill="black" stroke="black" points="85.5001,-623.085 82,-613.085 78.5001,-623.085 85.5001,-623.085"/>
<text text-anchor="middle" x="108" y="-634.8" font-family="Times New Roman,serif" font-size="14.00">pass thru</text>
</g>
<!-- f4&#45;&gt;f5 -->
<g id="edge4" class="edge"><title>f4&#45;&gt;f5</title>
<path fill="none" stroke="black" d="M104.512,-547.908C112.538,-537.185 121.861,-525.315 131,-515 134.158,-511.436 137.523,-507.821 140.96,-504.252"/>
<polygon fill="black" stroke="black" points="143.556,-506.604 148.076,-497.022 138.567,-501.694 143.556,-506.604"/>
<text text-anchor="middle" x="154" y="-518.8" font-family="Times New Roman,serif" font-size="14.00">trade by</text>
</g>
<!-- f6 -->
<g id="node6" class="node"><title>f6</title>
<image xlink:href="f6.svg" width="107px" height="65px" preserveAspectRatio="xMinYMin meet" x="267.5" y="-202"/>
<text text-anchor="middle" x="321" y="-165.8" font-family="Times New Roman,serif" font-size="14.00">f6</text>
</g>
<!-- f5&#45;&gt;f6 -->
<g id="edge5" class="edge"><title>f5&#45;&gt;f6</title>
<path fill="none" stroke="black" d="M235.685,-435.529C258.072,-421.648 282.807,-403.095 300,-381 341.682,-327.435 378.32,-306.625 361,-241 358.306,-230.792 353.755,-220.512 348.668,-211.079"/>
<polygon fill="black" stroke="black" points="351.667,-209.274 343.669,-202.325 345.589,-212.745 351.667,-209.274"/>
<text text-anchor="middle" x="413" y="-323.8" font-family="Times New Roman,serif" font-size="14.00">right and left thru</text>
</g>
<!-- f7 -->
<g id="node7" class="node"><title>f7</title>
<image xlink:href="f7.svg" width="107px" height="65px" preserveAspectRatio="xMinYMin meet" x="16.5" y="-65"/>
<text text-anchor="middle" x="70" y="-28.8" font-family="Times New Roman,serif" font-size="14.00">f7</text>
</g>
<!-- f5&#45;&gt;f7 -->
<g id="edge9" class="edge"><title>f5&#45;&gt;f7</title>
<path fill="none" stroke="black" d="M138.091,-431.829C121.543,-417.907 103.873,-400.324 92,-381 33.005,-284.977 48.2678,-144.518 60.9203,-75.2682"/>
<polygon fill="black" stroke="black" points="64.4085,-75.6597 62.8379,-65.182 57.5317,-74.3523 64.4085,-75.6597"/>
<text text-anchor="middle" x="89.5" y="-244.8" font-family="Times New Roman,serif" font-size="14.00">square thru 3</text>
</g>
<!-- f8 -->
<g id="node8" class="node"><title>f8</title>
<image xlink:href="f8.svg" width="65px" height="107px" preserveAspectRatio="xMinYMin meet" x="101.5" y="-381"/>
<text text-anchor="middle" x="134" y="-323.8" font-family="Times New Roman,serif" font-size="14.00">f8</text>
</g>
<!-- f5&#45;&gt;f8 -->
<g id="edge10" class="edge"><title>f5&#45;&gt;f8</title>
<path fill="none" stroke="black" d="M156.368,-431.731C152.751,-426.076 149.44,-420.052 147,-414 144.079,-406.754 141.809,-398.922 140.045,-391.041"/>
<polygon fill="black" stroke="black" points="143.447,-390.202 138.071,-381.073 136.58,-391.562 143.447,-390.202"/>
<text text-anchor="middle" x="176" y="-402.8" font-family="Times New Roman,serif" font-size="14.00">swing thru</text>
</g>
<!-- f10 -->
<g id="node10" class="node"><title>f10</title>
<image xlink:href="f10.svg" width="107px" height="65px" preserveAspectRatio="xMinYMin meet" x="184.5" y="-360"/>
<text text-anchor="middle" x="238" y="-323.8" font-family="Times New Roman,serif" font-size="14.00">f10</text>
</g>
<!-- f5&#45;&gt;f10 -->
<g id="edge13" class="edge"><title>f5&#45;&gt;f10</title>
<path fill="none" stroke="black" d="M197.04,-431.953C199.76,-426.019 202.518,-419.844 205,-414 211.065,-399.721 217.297,-383.917 222.689,-369.82"/>
<polygon fill="black" stroke="black" points="225.998,-370.965 226.275,-360.373 219.454,-368.48 225.998,-370.965"/>
<text text-anchor="middle" x="234" y="-402.8" font-family="Times New Roman,serif" font-size="14.00">star thru</text>
</g>
<!-- f6&#45;&gt;f7 -->
<g id="edge6" class="edge"><title>f6&#45;&gt;f7</title>
<path fill="none" stroke="black" d="M267.462,-139.705C228.027,-118.494 174.273,-89.5831 132.807,-67.2805"/>
<polygon fill="black" stroke="black" points="134.353,-64.138 123.888,-62.4835 131.037,-70.3029 134.353,-64.138"/>
<text text-anchor="middle" x="214" y="-86.8" font-family="Times New Roman,serif" font-size="14.00">pass thru</text>
</g>
<!-- f7&#45;&gt;f2 -->
<g id="edge7" class="edge"><title>f7&#45;&gt;f2</title>
<path fill="none" stroke="black" d="M42.5351,-65.2393C22.9242,-91.2019 0,-129.823 0,-168.5 0,-697.5 0,-697.5 0,-697.5 0,-727.203 19.1903,-753.444 40.1363,-773.239"/>
<polygon fill="black" stroke="black" points="37.8215,-775.865 47.5898,-779.967 42.5119,-770.668 37.8215,-775.865"/>
<text text-anchor="middle" x="23" y="-460.8" font-family="Times New Roman,serif" font-size="14.00">trade by</text>
</g>
<!-- f9 -->
<g id="node9" class="node"><title>f9</title>
<image xlink:href="f9.svg" width="65px" height="107px" preserveAspectRatio="xMinYMin meet" x="101.5" y="-223"/>
<text text-anchor="middle" x="134" y="-165.8" font-family="Times New Roman,serif" font-size="14.00">f9</text>
</g>
<!-- f8&#45;&gt;f9 -->
<g id="edge11" class="edge"><title>f8&#45;&gt;f9</title>
<path fill="none" stroke="black" d="M134,-273.686C134,-260.725 134,-246.725 134,-233.344"/>
<polygon fill="black" stroke="black" points="137.5,-233.26 134,-223.26 130.5,-233.26 137.5,-233.26"/>
<text text-anchor="middle" x="163" y="-244.8" font-family="Times New Roman,serif" font-size="14.00">swing thru</text>
</g>
<!-- f9&#45;&gt;f7 -->
<g id="edge12" class="edge"><title>f9&#45;&gt;f7</title>
<path fill="none" stroke="black" d="M109.073,-115.919C102.52,-102.098 95.5515,-87.3978 89.3411,-74.2977"/>
<polygon fill="black" stroke="black" points="92.4162,-72.6136 84.9698,-65.0769 86.091,-75.6123 92.4162,-72.6136"/>
<text text-anchor="middle" x="127" y="-86.8" font-family="Times New Roman,serif" font-size="14.00">pass thru</text>
</g>
<!-- f10&#45;&gt;f6 -->
<g id="edge14" class="edge"><title>f10&#45;&gt;f6</title>
<path fill="none" stroke="black" d="M270.932,-294.789C281.192,-283.397 291.715,-269.907 299,-256 306.04,-242.562 310.925,-226.734 314.269,-212.374"/>
<polygon fill="black" stroke="black" points="317.769,-212.742 316.44,-202.231 310.924,-211.277 317.769,-212.742"/>
<text text-anchor="middle" x="331" y="-244.8" font-family="Times New Roman,serif" font-size="14.00">slide thru</text>
</g>
<!-- f10&#45;&gt;f9 -->
<g id="edge18" class="edge"><title>f10&#45;&gt;f9</title>
<path fill="none" stroke="black" d="M223.287,-294.717C215.151,-278.212 204.397,-257.997 193,-241 187.073,-232.16 180.23,-223.141 173.35,-214.637"/>
<polygon fill="black" stroke="black" points="175.836,-212.15 166.772,-206.664 170.437,-216.605 175.836,-212.15"/>
<text text-anchor="middle" x="243.5" y="-244.8" font-family="Times New Roman,serif" font-size="14.00">pass the ocean</text>
</g>
<!-- f12 -->
<g id="node12" class="node"><title>f12</title>
<image xlink:href="f12.svg" width="107px" height="65px" preserveAspectRatio="xMinYMin meet" x="153.5" y="-613"/>
<text text-anchor="middle" x="207" y="-576.8" font-family="Times New Roman,serif" font-size="14.00">f12</text>
</g>
<!-- f11&#45;&gt;f12 -->
<g id="edge16" class="edge"><title>f11&#45;&gt;f12</title>
<path fill="none" stroke="black" d="M207,-663.745C207,-651.268 207,-636.77 207,-623.452"/>
<polygon fill="black" stroke="black" points="210.5,-623.085 207,-613.085 203.5,-623.085 210.5,-623.085"/>
<text text-anchor="middle" x="223" y="-634.8" font-family="Times New Roman,serif" font-size="14.00">zoom</text>
</g>
<!-- f12&#45;&gt;f5 -->
<g id="edge17" class="edge"><title>f12&#45;&gt;f5</title>
<path fill="none" stroke="black" d="M189.136,-547.769C186.621,-542.014 184.414,-535.947 183,-530 181.272,-522.734 180.377,-514.877 179.997,-507.229"/>
<polygon fill="black" stroke="black" points="183.491,-506.926 179.769,-497.006 176.493,-507.082 183.491,-506.926"/>
<text text-anchor="middle" x="242" y="-518.8" font-family="Times New Roman,serif" font-size="14.00">CENTERS pass thru</text>
</g>
</g>
</svg>
