<?xml version="1.0" encoding="UTF-8" standalone="no"?>
<!DOCTYPE svg PUBLIC "-//W3C//DTD SVG 1.1//EN"
 "http://www.w3.org/Graphics/SVG/1.1/DTD/svg11.dtd">
<!-- Generated by graphviz version 2.38.0 (20140413.2041)
 -->
<!-- Title: %3 Pages: 1 -->
<svg width="667pt" height="1011pt"
 viewBox="0.00 0.00 667.00 1011.00" xmlns="http://www.w3.org/2000/svg" xmlns:xlink="http://www.w3.org/1999/xlink">
<g id="graph0" class="graph" transform="scale(1 1) rotate(0) translate(4 1007)">
<title>%3</title>
<polygon fill="white" stroke="none" points="-4,4 -4,-1007 663,-1007 663,4 -4,4"/>
<!-- fc_3B2_3G2_4B3_4G3_1B0_1G0_2B1_2G1 -->
<g id="node1" class="node"><title>fc_3B2_3G2_4B3_4G3_1B0_1G0_2B1_2G1</title>
<image xlink:href="fc_3B2_3G2_4B3_4G3_1B0_1G0_2B1_2G1.svg" width="107px" height="107px" preserveAspectRatio="xMinYMin meet" x="243.5" y="-1003"/>
</g>
<!-- fh3_2G1_3B3_3G1_4B3_4G3_1B1_1G3_2B1 -->
<g id="node2" class="node"><title>fh3_2G1_3B3_3G1_4B3_4G3_1B1_1G3_2B1</title>
<image xlink:href="fh3_2G1_3B3_3G1_4B3_4G3_1B1_1G3_2B1.svg" width="107px" height="65px" preserveAspectRatio="xMinYMin meet" x="21.5" y="-845"/>
</g>
<!-- fc_3B2_3G2_4B3_4G3_1B0_1G0_2B1_2G1&#45;&gt;fh3_2G1_3B3_3G1_4B3_4G3_1B1_1G3_2B1 -->
<g id="edge1" class="edge"><title>fc_3B2_3G2_4B3_4G3_1B0_1G0_2B1_2G1&#45;&gt;fh3_2G1_3B3_3G1_4B3_4G3_1B1_1G3_2B1</title>
<path fill="none" stroke="black" d="M243.382,-938.583C203.169,-928.862 148.777,-910.603 111,-878 103.434,-871.471 97.1387,-862.939 92.0412,-854.23"/>
<polygon fill="black" stroke="black" points="94.9829,-852.311 87.1596,-845.166 88.8199,-855.63 94.9829,-852.311"/>
<text text-anchor="middle" x="197" y="-866.8" font-family="Times New Roman,serif" font-size="14.00">HEADS HEADS square thru 4</text>
</g>
<!-- fh3_2G1_1B3_1G1_4B3_4G3_3B1_3G3_2B1 -->
<g id="node5" class="node"><title>fh3_2G1_1B3_1G1_4B3_4G3_3B1_3G3_2B1</title>
<image xlink:href="fh3_2G1_1B3_1G1_4B3_4G3_3B1_3G3_2B1.svg" width="107px" height="65px" preserveAspectRatio="xMinYMin meet" x="240.5" y="-497"/>
</g>
<!-- fc_3B2_3G2_4B3_4G3_1B0_1G0_2B1_2G1&#45;&gt;fh3_2G1_1B3_1G1_4B3_4G3_3B1_3G3_2B1 -->
<g id="edge8" class="edge"><title>fc_3B2_3G2_4B3_4G3_1B0_1G0_2B1_2G1&#45;&gt;fh3_2G1_1B3_1G1_4B3_4G3_3B1_3G3_2B1</title>
<path fill="none" stroke="black" d="M297,-895.929C297,-870.955 297,-840.688 297,-813.5 297,-813.5 297,-813.5 297,-579.5 297,-555.68 296.337,-529.07 295.635,-507.553"/>
<polygon fill="black" stroke="black" points="299.129,-507.309 295.29,-497.435 292.133,-507.548 299.129,-507.309"/>
<text text-anchor="middle" x="383" y="-692.8" font-family="Times New Roman,serif" font-size="14.00">HEADS HEADS square thru 2</text>
</g>
<!-- fh3_2G1_1G1_1B3_4B3_4G3_3G3_3B1_2B1 -->
<g id="node12" class="node"><title>fh3_2G1_1G1_1B3_4B3_4G3_3G3_3B1_2B1</title>
<image xlink:href="fh3_2G1_1G1_1B3_4B3_4G3_3G3_3B1_2B1.svg" width="107px" height="65px" preserveAspectRatio="xMinYMin meet" x="325.5" y="-613"/>
</g>
<!-- fc_3B2_3G2_4B3_4G3_1B0_1G0_2B1_2G1&#45;&gt;fh3_2G1_1G1_1B3_4B3_4G3_3G3_3B1_2B1 -->
<g id="edge19" class="edge"><title>fc_3B2_3G2_4B3_4G3_1B0_1G0_2B1_2G1&#45;&gt;fh3_2G1_1G1_1B3_4B3_4G3_3G3_3B1_2B1</title>
<path fill="none" stroke="black" d="M350.892,-901.502C393.208,-860.756 448.872,-797.663 473,-729 482.578,-701.745 484.918,-690.316 473,-664 465.291,-646.977 452.142,-632.076 438.081,-619.794"/>
<polygon fill="black" stroke="black" points="440.131,-616.946 430.204,-613.243 435.655,-622.328 440.131,-616.946"/>
<text text-anchor="middle" x="514" y="-750.8" font-family="Times New Roman,serif" font-size="14.00">HEADS star thru</text>
</g>
<!-- fh3_1G1_2B3_4G1_1B3_3G3_4B1_2G3_3B1 -->
<g id="node3" class="node"><title>fh3_1G1_2B3_4G1_1B3_3G3_4B1_2G3_3B1</title>
<image xlink:href="fh3_1G1_2B3_4G1_1B3_3G3_4B1_2G3_3B1.svg" width="107px" height="65px" preserveAspectRatio="xMinYMin meet" x="28.5" y="-729"/>
</g>
<!-- fh3_2G1_3B3_3G1_4B3_4G3_1B1_1G3_2B1&#45;&gt;fh3_1G1_2B3_4G1_1B3_3G3_4B1_2G3_3B1 -->
<g id="edge2" class="edge"><title>fh3_2G1_3B3_3G1_4B3_4G3_1B1_1G3_2B1&#45;&gt;fh3_1G1_2B3_4G1_1B3_3G3_4B1_2G3_3B1</title>
<path fill="none" stroke="black" d="M66.065,-779.982C64.1673,-769.483 63.2088,-757.73 65,-747 65.4474,-744.32 66.0223,-741.59 66.6888,-738.859"/>
<polygon fill="black" stroke="black" points="70.1091,-739.625 69.439,-729.051 63.369,-737.735 70.1091,-739.625"/>
<text text-anchor="middle" x="113" y="-750.8" font-family="Times New Roman,serif" font-size="14.00">right and left thru</text>
</g>
<!-- fh3_1G1_2G1_4B3_1B3_3G3_4G3_2B1_3B1 -->
<g id="node11" class="node"><title>fh3_1G1_2G1_4B3_1B3_3G3_4G3_2B1_3B1</title>
<image xlink:href="fh3_1G1_2G1_4B3_1B3_3G3_4G3_2B1_3B1.svg" width="107px" height="65px" preserveAspectRatio="xMinYMin meet" x="153.5" y="-729"/>
</g>
<!-- fh3_2G1_3B3_3G1_4B3_4G3_1B1_1G3_2B1&#45;&gt;fh3_1G1_2G1_4B3_1B3_3G3_4G3_2B1_3B1 -->
<g id="edge15" class="edge"><title>fh3_2G1_3B3_3G1_4B3_4G3_1B1_1G3_2B1&#45;&gt;fh3_1G1_2G1_4B3_1B3_3G3_4G3_2B1_3B1</title>
<path fill="none" stroke="black" d="M128.83,-785.275C140.087,-778.524 151.431,-770.681 161,-762 168.874,-754.857 176.187,-746.147 182.559,-737.468"/>
<polygon fill="black" stroke="black" points="185.479,-739.401 188.369,-729.208 179.753,-735.374 185.479,-739.401"/>
<text text-anchor="middle" x="224.5" y="-750.8" font-family="Times New Roman,serif" font-size="14.00">pass to the center</text>
</g>
<!-- fh3_2B3_1G1_1B3_4G1_4B1_3G3_3B1_2G3 -->
<g id="node4" class="node"><title>fh3_2B3_1G1_1B3_4G1_4B1_3G3_3B1_2G3</title>
<image xlink:href="fh3_2B3_1G1_1B3_4G1_4B1_3G3_3B1_2G3.svg" width="107px" height="65px" preserveAspectRatio="xMinYMin meet" x="112.5" y="-613"/>
</g>
<!-- fh3_1G1_2B3_4G1_1B3_3G3_4B1_2G3_3B1&#45;&gt;fh3_2B3_1G1_1B3_4G1_4B1_3G3_3B1_2G3 -->
<g id="edge3" class="edge"><title>fh3_1G1_2B3_4G1_1B3_3G3_4B1_2G3_3B1&#45;&gt;fh3_2B3_1G1_1B3_4G1_4B1_3G3_3B1_2G3</title>
<path fill="none" stroke="black" d="M105.399,-663.745C115.047,-650.651 126.336,-635.329 136.539,-621.483"/>
<polygon fill="black" stroke="black" points="139.612,-623.212 142.727,-613.085 133.977,-619.059 139.612,-623.212"/>
<text text-anchor="middle" x="156" y="-634.8" font-family="Times New Roman,serif" font-size="14.00">pass thru</text>
</g>
<!-- fh3_2B3_1G1_1B3_4G1_4B1_3G3_3B1_2G3&#45;&gt;fh3_2G1_1B3_1G1_4B3_4G3_3B1_3G3_2B1 -->
<g id="edge4" class="edge"><title>fh3_2B3_1G1_1B3_4G1_4B1_3G3_3B1_2G3&#45;&gt;fh3_2G1_1B3_1G1_4B3_4G3_3B1_3G3_2B1</title>
<path fill="none" stroke="black" d="M200.528,-547.85C212.075,-537.342 225.047,-525.617 237,-515 241.103,-511.355 245.389,-507.578 249.689,-503.81"/>
<polygon fill="black" stroke="black" points="252.178,-506.283 257.405,-497.067 247.572,-501.012 252.178,-506.283"/>
<text text-anchor="middle" x="260" y="-518.8" font-family="Times New Roman,serif" font-size="14.00">trade by</text>
</g>
<!-- fh3_3G1_2B3_4G1_3B3_1G3_4B1_2G3_1B1 -->
<g id="node6" class="node"><title>fh3_3G1_2B3_4G1_3B3_1G3_4B1_2G3_1B1</title>
<image xlink:href="fh3_3G1_2B3_4G1_3B3_1G3_4B1_2G3_1B1.svg" width="107px" height="65px" preserveAspectRatio="xMinYMin meet" x="167.5" y="-202"/>
</g>
<!-- fh3_2G1_1B3_1G1_4B3_4G3_3B1_3G3_2B1&#45;&gt;fh3_3G1_2B3_4G1_3B3_1G3_4B1_2G3_1B1 -->
<g id="edge5" class="edge"><title>fh3_2G1_1B3_1G1_4B3_4G3_3B1_3G3_2B1&#45;&gt;fh3_3G1_2B3_4G1_3B3_1G3_4B1_2G3_1B1</title>
<path fill="none" stroke="black" d="M294.611,-431.872C294.482,-387.765 290.647,-305.894 267,-241 263.207,-230.592 257.628,-220.167 251.653,-210.647"/>
<polygon fill="black" stroke="black" points="254.51,-208.622 246.093,-202.186 248.659,-212.465 254.51,-208.622"/>
<text text-anchor="middle" x="341" y="-323.8" font-family="Times New Roman,serif" font-size="14.00">right and left thru</text>
</g>
<!-- fh3_2B3_3G1_3B3_4G1_4B1_1G3_1B1_2G3 -->
<g id="node7" class="node"><title>fh3_2B3_3G1_3B3_4G1_4B1_1G3_1B1_2G3</title>
<image xlink:href="fh3_2B3_3G1_3B3_4G1_4B1_1G3_1B1_2G3.svg" width="107px" height="65px" preserveAspectRatio="xMinYMin meet" x="110.5" y="-65"/>
</g>
<!-- fh3_2G1_1B3_1G1_4B3_4G3_3B1_3G3_2B1&#45;&gt;fh3_2B3_3G1_3B3_4G1_4B1_1G3_1B1_2G3 -->
<g id="edge9" class="edge"><title>fh3_2G1_1B3_1G1_4B3_4G3_3B1_3G3_2B1&#45;&gt;fh3_2B3_3G1_3B3_4G1_4B1_1G3_1B1_2G3</title>
<path fill="none" stroke="black" d="M347.591,-459.281C399.82,-452.132 477.281,-432.874 519,-381 593.089,-288.876 616.148,-208.077 542,-116 503.244,-67.8725 324.945,-46.3097 227.702,-37.9868"/>
<polygon fill="black" stroke="black" points="227.949,-34.4953 217.693,-37.1523 227.367,-41.4711 227.949,-34.4953"/>
<text text-anchor="middle" x="622.5" y="-244.8" font-family="Times New Roman,serif" font-size="14.00">square thru 3</text>
</g>
<!-- fv3_1G3_3B1_4B3_4G1_3G1_1B3_2B1_2G3 -->
<g id="node8" class="node"><title>fv3_1G3_3B1_4B3_4G1_3G1_1B3_2B1_2G3</title>
<image xlink:href="fv3_1G3_3B1_4B3_4G1_3G1_1B3_2B1_2G3.svg" width="65px" height="107px" preserveAspectRatio="xMinYMin meet" x="46.5" y="-381"/>
</g>
<!-- fh3_2G1_1B3_1G1_4B3_4G3_3B1_3G3_2B1&#45;&gt;fv3_1G3_3B1_4B3_4G1_3G1_1B3_2B1_2G3 -->
<g id="edge10" class="edge"><title>fh3_2G1_1B3_1G1_4B3_4G3_3B1_3G3_2B1&#45;&gt;fv3_1G3_3B1_4B3_4G1_3G1_1B3_2B1_2G3</title>
<path fill="none" stroke="black" d="M240.343,-450.138C214.419,-442.154 183.662,-430.336 159,-414 144.408,-404.334 130.582,-391.499 118.657,-378.719"/>
<polygon fill="black" stroke="black" points="121.174,-376.283 111.864,-371.225 115.987,-380.985 121.174,-376.283"/>
<text text-anchor="middle" x="188" y="-402.8" font-family="Times New Roman,serif" font-size="14.00">swing thru</text>
</g>
<!-- fh3_1B2_2G2_4B2_1G2_3B0_4G0_2B0_3G0 -->
<g id="node10" class="node"><title>fh3_1B2_2G2_4B2_1G2_3B0_4G0_2B0_3G0</title>
<image xlink:href="fh3_1B2_2G2_4B2_1G2_3B0_4G0_2B0_3G0.svg" width="107px" height="65px" preserveAspectRatio="xMinYMin meet" x="145.5" y="-360"/>
</g>
<!-- fh3_2G1_1B3_1G1_4B3_4G3_3B1_3G3_2B1&#45;&gt;fh3_1B2_2G2_4B2_1G2_3B0_4G0_2B0_3G0 -->
<g id="edge13" class="edge"><title>fh3_2G1_1B3_1G1_4B3_4G3_3B1_3G3_2B1&#45;&gt;fh3_1B2_2G2_4B2_1G2_3B0_4G0_2B0_3G0</title>
<path fill="none" stroke="black" d="M245.524,-431.833C239.409,-426.407 233.671,-420.424 229,-414 219.604,-401.078 212.942,-384.952 208.323,-370.198"/>
<polygon fill="black" stroke="black" points="211.588,-368.89 205.443,-360.259 204.864,-370.838 211.588,-368.89"/>
<text text-anchor="middle" x="252" y="-402.8" font-family="Times New Roman,serif" font-size="14.00">star thru</text>
</g>
<!-- fc_3G1_3B3_2G2_2B0_1G3_1B1_4G0_4B2 -->
<g id="node13" class="node"><title>fc_3G1_3B3_2G2_2B0_1G3_1B1_4G0_4B2</title>
<image xlink:href="fc_3G1_3B3_2G2_2B0_1G3_1B1_4G0_4B2.svg" width="107px" height="107px" preserveAspectRatio="xMinYMin meet" x="403.5" y="-381"/>
</g>
<!-- fh3_2G1_1B3_1G1_4B3_4G3_3B1_3G3_2B1&#45;&gt;fc_3G1_3B3_2G2_2B0_1G3_1B1_4G0_4B2 -->
<g id="edge20" class="edge"><title>fh3_2G1_1B3_1G1_4B3_4G3_3B1_3G3_2B1&#45;&gt;fc_3G1_3B3_2G2_2B0_1G3_1B1_4G0_4B2</title>
<path fill="none" stroke="black" d="M332.216,-431.848C351.073,-416.231 374.283,-397.008 395.552,-379.393"/>
<polygon fill="black" stroke="black" points="397.819,-382.059 403.288,-372.985 393.354,-376.668 397.819,-382.059"/>
<text text-anchor="middle" x="402" y="-402.8" font-family="Times New Roman,serif" font-size="14.00">dixie grand</text>
</g>
<!-- fh3_3G1_2B3_4G1_3B3_1G3_4B1_2G3_1B1&#45;&gt;fh3_2B3_3G1_3B3_4G1_4B1_1G3_1B1_2G3 -->
<g id="edge6" class="edge"><title>fh3_3G1_2B3_4G1_3B3_1G3_4B1_2G3_1B1&#45;&gt;fh3_2B3_3G1_3B3_4G1_4B1_1G3_1B1_2G3</title>
<path fill="none" stroke="black" d="M207.636,-136.848C199.831,-118.364 189.893,-94.826 181.473,-74.8839"/>
<polygon fill="black" stroke="black" points="184.592,-73.272 177.478,-65.421 178.143,-75.9949 184.592,-73.272"/>
<text text-anchor="middle" x="217" y="-86.8" font-family="Times New Roman,serif" font-size="14.00">pass thru</text>
</g>
<!-- fh3_2B3_3G1_3B3_4G1_4B1_1G3_1B1_2G3&#45;&gt;fh3_2G1_3B3_3G1_4B3_4G3_1B1_1G3_2B1 -->
<g id="edge7" class="edge"><title>fh3_2B3_3G1_3B3_4G1_4B1_1G3_1B1_2G3&#45;&gt;fh3_2G1_3B3_3G1_4B3_4G3_1B1_1G3_2B1</title>
<path fill="none" stroke="black" d="M110.3,-52.0877C62.4709,-72.4649 0,-110.233 0,-168.5 0,-697.5 0,-697.5 0,-697.5 0,-725.316 15.7769,-751.598 32.8586,-771.901"/>
<polygon fill="black" stroke="black" points="30.4586,-774.471 39.6961,-779.66 35.7104,-769.843 30.4586,-774.471"/>
<text text-anchor="middle" x="23" y="-460.8" font-family="Times New Roman,serif" font-size="14.00">trade by</text>
</g>
<!-- fv3_3B3_4G1_1G3_4B1_1B1_2G3_3G1_2B3 -->
<g id="node9" class="node"><title>fv3_3B3_4G1_1G3_4B1_1B1_2G3_3G1_2B3</title>
<image xlink:href="fv3_3B3_4G1_1G3_4B1_1B1_2G3_3G1_2B3.svg" width="65px" height="107px" preserveAspectRatio="xMinYMin meet" x="83.5" y="-223"/>
</g>
<!-- fv3_1G3_3B1_4B3_4G1_3G1_1B3_2B1_2G3&#45;&gt;fv3_3B3_4G1_1G3_4B1_1B1_2G3_3G1_2B3 -->
<g id="edge11" class="edge"><title>fv3_1G3_3B1_4B3_4G1_3G1_1B3_2B1_2G3&#45;&gt;fv3_3B3_4G1_1G3_4B1_1B1_2G3_3G1_2B3</title>
<path fill="none" stroke="black" d="M46.219,-291.874C35.6133,-276.445 28.3403,-257.96 36,-241 44.2295,-222.779 59.7536,-207.384 74.9528,-195.674"/>
<polygon fill="black" stroke="black" points="77.3131,-198.284 83.3151,-189.553 73.1785,-192.636 77.3131,-198.284"/>
<text text-anchor="middle" x="65" y="-244.8" font-family="Times New Roman,serif" font-size="14.00">swing thru</text>
</g>
<!-- fv3_3B3_4G1_1G3_4B1_1B1_2G3_3G1_2B3&#45;&gt;fh3_2B3_3G1_3B3_4G1_4B1_1G3_1B1_2G3 -->
<g id="edge12" class="edge"><title>fv3_3B3_4G1_1G3_4B1_1B1_2G3_3G1_2B3&#45;&gt;fh3_2B3_3G1_3B3_4G1_4B1_1G3_1B1_2G3</title>
<path fill="none" stroke="black" d="M122.579,-115.59C124.861,-104.592 127.917,-93.2399 132,-83 133.194,-80.0058 134.579,-76.9991 136.089,-74.0281"/>
<polygon fill="black" stroke="black" points="139.155,-75.716 140.932,-65.2712 133.029,-72.3282 139.155,-75.716"/>
<text text-anchor="middle" x="158" y="-86.8" font-family="Times New Roman,serif" font-size="14.00">pass thru</text>
</g>
<!-- fh3_1B2_2G2_4B2_1G2_3B0_4G0_2B0_3G0&#45;&gt;fh3_3G1_2B3_4G1_3B3_1G3_4B1_2G3_1B1 -->
<g id="edge14" class="edge"><title>fh3_1B2_2G2_4B2_1G2_3B0_4G0_2B0_3G0&#45;&gt;fh3_3G1_2B3_4G1_3B3_1G3_4B1_2G3_1B1</title>
<path fill="none" stroke="black" d="M203.452,-294.931C206.822,-271.037 211.48,-238.005 215.151,-211.978"/>
<polygon fill="black" stroke="black" points="218.624,-212.413 216.555,-202.022 211.692,-211.435 218.624,-212.413"/>
<text text-anchor="middle" x="237" y="-244.8" font-family="Times New Roman,serif" font-size="14.00">slide thru</text>
</g>
<!-- fh3_1B2_2G2_4B2_1G2_3B0_4G0_2B0_3G0&#45;&gt;fv3_3B3_4G1_1G3_4B1_1B1_2G3_3G1_2B3 -->
<g id="edge18" class="edge"><title>fh3_1B2_2G2_4B2_1G2_3B0_4G0_2B0_3G0&#45;&gt;fv3_3B3_4G1_1G3_4B1_1B1_2G3_3G1_2B3</title>
<path fill="none" stroke="black" d="M153.903,-294.75C141.83,-283.897 130.158,-270.731 123,-256 119.568,-248.936 117.252,-241.154 115.739,-233.25"/>
<polygon fill="black" stroke="black" points="119.179,-232.585 114.228,-223.217 112.257,-233.627 119.179,-232.585"/>
<text text-anchor="middle" x="164.5" y="-244.8" font-family="Times New Roman,serif" font-size="14.00">pass the ocean</text>
</g>
<!-- fh3_1G1_2G1_4B3_1B3_3G3_4G3_2B1_3B1&#45;&gt;fh3_2G1_1G1_1B3_4B3_4G3_3G3_3B1_2B1 -->
<g id="edge16" class="edge"><title>fh3_1G1_2G1_4B3_1B3_3G3_4G3_2B1_3B1&#45;&gt;fh3_2G1_1G1_1B3_4B3_4G3_3G3_3B1_2B1</title>
<path fill="none" stroke="black" d="M254.912,-663.745C275.972,-649.786 300.852,-633.296 322.783,-618.76"/>
<polygon fill="black" stroke="black" points="324.944,-621.527 331.345,-613.085 321.076,-615.692 324.944,-621.527"/>
<text text-anchor="middle" x="320" y="-634.8" font-family="Times New Roman,serif" font-size="14.00">zoom</text>
</g>
<!-- fh3_2G1_1G1_1B3_4B3_4G3_3G3_3B1_2B1&#45;&gt;fh3_2G1_1B3_1G1_4B3_4G3_3B1_3G3_2B1 -->
<g id="edge17" class="edge"><title>fh3_2G1_1G1_1B3_4B3_4G3_3G3_3B1_2B1&#45;&gt;fh3_2G1_1B3_1G1_4B3_4G3_3B1_3G3_2B1</title>
<path fill="none" stroke="black" d="M355.323,-547.745C345.56,-534.651 334.136,-519.329 323.812,-505.483"/>
<polygon fill="black" stroke="black" points="326.334,-503.01 317.55,-497.085 320.722,-507.194 326.334,-503.01"/>
<text text-anchor="middle" x="401" y="-518.8" font-family="Times New Roman,serif" font-size="14.00">CENTERS pass thru</text>
</g>
<!-- fc_3G3_3B1_2G0_2B2_1G1_1B3_4G2_4B0 -->
<g id="node14" class="node"><title>fc_3G3_3B1_2G0_2B2_1G1_1B3_4G2_4B0</title>
<image xlink:href="fc_3G3_3B1_2G0_2B2_1G1_1B3_4G2_4B0.svg" width="107px" height="107px" preserveAspectRatio="xMinYMin meet" x="425.5" y="-223"/>
</g>
<!-- fc_3G1_3B3_2G2_2B0_1G3_1B1_4G0_4B2&#45;&gt;fc_3G3_3B1_2G0_2B2_1G1_1B3_4G2_4B0 -->
<g id="edge21" class="edge"><title>fc_3G1_3B3_2G2_2B0_1G3_1B1_4G0_4B2&#45;&gt;fc_3G3_3B1_2G0_2B2_1G1_1B3_4G2_4B0</title>
<path fill="none" stroke="black" d="M417.012,-273.732C413.094,-263.037 411.891,-251.766 416,-241 417.2,-237.856 418.612,-234.764 420.194,-231.735"/>
<polygon fill="black" stroke="black" points="423.365,-233.246 425.409,-222.85 417.328,-229.703 423.365,-233.246"/>
<text text-anchor="middle" x="440" y="-244.8" font-family="Times New Roman,serif" font-size="14.00">turn thru</text>
</g>
<!-- fc_3B2_3G2_2B3_2G3_1B0_1G0_4B1_4G1 -->
<g id="node15" class="node"><title>fc_3B2_3G2_2B3_2G3_1B0_1G0_4B1_4G1</title>
<image xlink:href="fc_3B2_3G2_2B3_2G3_1B0_1G0_4B1_4G1.svg" width="107px" height="107px" preserveAspectRatio="xMinYMin meet" x="292.5" y="-223"/>
</g>
<!-- fc_3G1_3B3_2G2_2B0_1G3_1B1_4G0_4B2&#45;&gt;fc_3B2_3G2_2B3_2G3_1B0_1G0_4B1_4G1 -->
<g id="edge23" class="edge"><title>fc_3G1_3B3_2G2_2B0_1G3_1B1_4G0_4B2&#45;&gt;fc_3B2_3G2_2B3_2G3_1B0_1G0_4B1_4G1</title>
<path fill="none" stroke="black" d="M403.305,-284.779C398.483,-281.113 393.663,-277.477 389,-274 378.024,-265.815 371.47,-267.474 364,-256 359.419,-248.965 355.978,-240.975 353.397,-232.773"/>
<polygon fill="black" stroke="black" points="356.763,-231.812 350.747,-223.091 350.012,-233.66 356.763,-231.812"/>
<text text-anchor="middle" x="387" y="-244.8" font-family="Times New Roman,serif" font-size="14.00">star thru</text>
</g>
<!-- fc_3G3_3B1_2G0_2B2_1G1_1B3_4G2_4B0&#45;&gt;fc_3G1_3B3_2G2_2B0_1G3_1B1_4G0_4B2 -->
<g id="edge22" class="edge"><title>fc_3G3_3B1_2G0_2B2_1G1_1B3_4G2_4B0&#45;&gt;fc_3G1_3B3_2G2_2B0_1G3_1B1_4G0_4B2</title>
<path fill="none" stroke="black" d="M471.559,-223.26C469.732,-236.218 467.758,-250.217 465.871,-263.599"/>
<polygon fill="black" stroke="black" points="462.379,-263.295 464.448,-273.686 469.31,-264.272 462.379,-263.295"/>
<text text-anchor="middle" x="502.5" y="-244.8" font-family="Times New Roman,serif" font-size="14.00">U&#45;turn back</text>
</g>
</g>
</svg>
