<?xml version="1.0" encoding="UTF-8" standalone="no"?>
<!DOCTYPE svg PUBLIC "-//W3C//DTD SVG 1.1//EN"
 "http://www.w3.org/Graphics/SVG/1.1/DTD/svg11.dtd">
<!-- Generated by graphviz version 2.38.0 (20140413.2041)
 -->
<!-- Title: %3 Pages: 1 -->
<svg width="364pt" height="811pt"
 viewBox="0.00 0.00 363.50 811.00" xmlns="http://www.w3.org/2000/svg" xmlns:xlink="http://www.w3.org/1999/xlink">
<g id="graph0" class="graph" transform="scale(1 1) rotate(0) translate(4 807)">
<title>%3</title>
<polygon fill="white" stroke="none" points="-4,4 -4,-807 359.5,-807 359.5,4 -4,4"/>
<!-- f1 -->
<g id="node1" class="node"><title>f1</title>
<image xlink:href="f1.svg" width="107px" height="107px" preserveAspectRatio="xMinYMin meet" x="85" y="-803"/>
<text text-anchor="middle" x="138.5" y="-745.8" font-family="Times New Roman,serif" font-size="14.00">f1</text>
</g>
<!-- f2 -->
<g id="node2" class="node"><title>f2</title>
<image xlink:href="f2.svg" width="107px" height="65px" preserveAspectRatio="xMinYMin meet" x="0" y="-645"/>
<text text-anchor="middle" x="53.5" y="-608.8" font-family="Times New Roman,serif" font-size="14.00">f2</text>
</g>
<!-- f1&#45;&gt;f2 -->
<g id="edge1" class="edge"><title>f1&#45;&gt;f2</title>
<path fill="none" stroke="black" d="M84.66,-719.913C69.4992,-708.973 54.8715,-694.962 46.5,-678 43.0685,-671.047 41.9885,-663.17 42.2435,-655.368"/>
<polygon fill="black" stroke="black" points="45.7439,-655.54 43.2623,-645.24 38.779,-654.839 45.7439,-655.54"/>
<text text-anchor="middle" x="132.5" y="-666.8" font-family="Times New Roman,serif" font-size="14.00">HEADS HEADS square thru 4</text>
</g>
<!-- f5 -->
<g id="node5" class="node"><title>f5</title>
<image xlink:href="f5.svg" width="107px" height="65px" preserveAspectRatio="xMinYMin meet" x="82" y="-297"/>
<text text-anchor="middle" x="135.5" y="-260.8" font-family="Times New Roman,serif" font-size="14.00">f5</text>
</g>
<!-- f1&#45;&gt;f5 -->
<g id="edge8" class="edge"><title>f1&#45;&gt;f5</title>
<path fill="none" stroke="black" d="M192.202,-709.792C202.209,-700.392 211.656,-689.653 218.5,-678 233.357,-652.706 232.5,-642.834 232.5,-613.5 232.5,-613.5 232.5,-613.5 232.5,-379.5 232.5,-349.513 212.791,-323.397 191.141,-303.755"/>
<polygon fill="black" stroke="black" points="193.283,-300.98 183.432,-297.081 188.702,-306.272 193.283,-300.98"/>
<text text-anchor="middle" x="294" y="-492.8" font-family="Times New Roman,serif" font-size="14.00">HEADS square thru 2</text>
</g>
<!-- f3 -->
<g id="node3" class="node"><title>f3</title>
<image xlink:href="f3.svg" width="107px" height="65px" preserveAspectRatio="xMinYMin meet" x="82" y="-529"/>
<text text-anchor="middle" x="135.5" y="-492.8" font-family="Times New Roman,serif" font-size="14.00">f3</text>
</g>
<!-- f2&#45;&gt;f3 -->
<g id="edge2" class="edge"><title>f2&#45;&gt;f3</title>
<path fill="none" stroke="black" d="M76.3416,-579.745C85.7601,-566.651 96.7808,-551.329 106.741,-537.483"/>
<polygon fill="black" stroke="black" points="109.783,-539.247 112.781,-529.085 104.1,-535.159 109.783,-539.247"/>
<text text-anchor="middle" x="147.5" y="-550.8" font-family="Times New Roman,serif" font-size="14.00">right and left thru</text>
</g>
<!-- f4 -->
<g id="node4" class="node"><title>f4</title>
<image xlink:href="f4.svg" width="107px" height="65px" preserveAspectRatio="xMinYMin meet" x="82" y="-413"/>
<text text-anchor="middle" x="135.5" y="-376.8" font-family="Times New Roman,serif" font-size="14.00">f4</text>
</g>
<!-- f3&#45;&gt;f4 -->
<g id="edge3" class="edge"><title>f3&#45;&gt;f4</title>
<path fill="none" stroke="black" d="M135.5,-463.745C135.5,-451.268 135.5,-436.77 135.5,-423.452"/>
<polygon fill="black" stroke="black" points="139,-423.085 135.5,-413.085 132,-423.085 139,-423.085"/>
<text text-anchor="middle" x="161.5" y="-434.8" font-family="Times New Roman,serif" font-size="14.00">pass thru</text>
</g>
<!-- f4&#45;&gt;f5 -->
<g id="edge4" class="edge"><title>f4&#45;&gt;f5</title>
<path fill="none" stroke="black" d="M135.5,-347.745C135.5,-335.268 135.5,-320.77 135.5,-307.452"/>
<polygon fill="black" stroke="black" points="139,-307.085 135.5,-297.085 132,-307.085 139,-307.085"/>
<text text-anchor="middle" x="158.5" y="-318.8" font-family="Times New Roman,serif" font-size="14.00">trade by</text>
</g>
<!-- f6 -->
<g id="node6" class="node"><title>f6</title>
<image xlink:href="f6.svg" width="107px" height="65px" preserveAspectRatio="xMinYMin meet" x="82" y="-181"/>
<text text-anchor="middle" x="135.5" y="-144.8" font-family="Times New Roman,serif" font-size="14.00">f6</text>
</g>
<!-- f5&#45;&gt;f6 -->
<g id="edge5" class="edge"><title>f5&#45;&gt;f6</title>
<path fill="none" stroke="black" d="M135.5,-231.745C135.5,-219.268 135.5,-204.77 135.5,-191.452"/>
<polygon fill="black" stroke="black" points="139,-191.085 135.5,-181.085 132,-191.085 139,-191.085"/>
<text text-anchor="middle" x="183.5" y="-202.8" font-family="Times New Roman,serif" font-size="14.00">right and left thru</text>
</g>
<!-- f7 -->
<g id="node7" class="node"><title>f7</title>
<image xlink:href="f7.svg" width="107px" height="65px" preserveAspectRatio="xMinYMin meet" x="28" y="-65"/>
<text text-anchor="middle" x="81.5" y="-28.8" font-family="Times New Roman,serif" font-size="14.00">f7</text>
</g>
<!-- f6&#45;&gt;f7 -->
<g id="edge6" class="edge"><title>f6&#45;&gt;f7</title>
<path fill="none" stroke="black" d="M120.458,-115.745C114.373,-102.898 107.272,-87.9065 100.811,-74.268"/>
<polygon fill="black" stroke="black" points="103.905,-72.6241 96.4613,-65.0851 97.5792,-75.6208 103.905,-72.6241"/>
<text text-anchor="middle" x="138.5" y="-86.8" font-family="Times New Roman,serif" font-size="14.00">pass thru</text>
</g>
<!-- f7&#45;&gt;f2 -->
<g id="edge7" class="edge"><title>f7&#45;&gt;f2</title>
<path fill="none" stroke="black" d="M69.3002,-65.4191C61.7548,-87.9975 53.5,-119.172 53.5,-147.5 53.5,-497.5 53.5,-497.5 53.5,-497.5 53.5,-521.312 53.5,-547.921 53.5,-569.44"/>
<polygon fill="black" stroke="black" points="50.0001,-569.56 53.5,-579.56 57.0001,-569.56 50.0001,-569.56"/>
<text text-anchor="middle" x="76.5" y="-318.8" font-family="Times New Roman,serif" font-size="14.00">trade by</text>
</g>
</g>
</svg>
