<?xml version="1.0" encoding="UTF-8" standalone="no"?>
<svg xmlns="http://www.w3.org/2000/svg" viewBox="0 0 84 140" width="100" height="100">
<g class="formation">
<g class="dancer couple3 guy" transform="translate(28, 28) rotate(-270)">
<!--
 Dancer(couple_number=3, gender=B, direction=3, x=0, y=0) -
-->
<rect fill="none" stroke="black" width="20" height="20" x="-10.0" y="-10.0" />
<circle class="nose" r="3" cx="0" cy="-10.0" stroke="none" fill="black" />
<text class="dancer-label" stroke="black" x="0" y="3" text-anchor="middle" alignment-baseline="middle">
3
</text>
</g>
<g class="dancer couple2 guy" transform="translate(56, 28) rotate(-270)">
<!--
 Dancer(couple_number=2, gender=B, direction=3, x=1, y=0) -
-->
<rect fill="none" stroke="black" width="20" height="20" x="-10.0" y="-10.0" />
<circle class="nose" r="3" cx="0" cy="-10.0" stroke="none" fill="black" />
<text class="dancer-label" stroke="black" x="0" y="3" text-anchor="middle" alignment-baseline="middle">
2
</text>
</g>
<g class="dancer couple4 gal" transform="translate(28, 56) rotate(-90)">
<!--
 Dancer(couple_number=4, gender=G, direction=1, x=0, y=1) -
-->
<circle fill="none" stroke="black" r="10.0" x="0" y="0" />
<circle class="nose" r="3" cx="0" cy="-10.0" stroke="none" fill="black" />
<text class="dancer-label" stroke="black" x="0" y="3" text-anchor="middle" alignment-baseline="middle">
4
</text>
</g>
<g class="dancer couple3 gal" transform="translate(56, 56) rotate(-90)">
<!--
 Dancer(couple_number=3, gender=G, direction=1, x=1, y=1) -
-->
<circle fill="none" stroke="black" r="10.0" x="0" y="0" />
<circle class="nose" r="3" cx="0" cy="-10.0" stroke="none" fill="black" />
<text class="dancer-label" stroke="black" x="0" y="3" text-anchor="middle" alignment-baseline="middle">
3
</text>
</g>
<g class="dancer couple1 gal" transform="translate(28, 84) rotate(-270)">
<!--
 Dancer(couple_number=1, gender=G, direction=3, x=0, y=2) -
-->
<circle fill="none" stroke="black" r="10.0" x="0" y="0" />
<circle class="nose" r="3" cx="0" cy="-10.0" stroke="none" fill="black" />
<text class="dancer-label" stroke="black" x="0" y="3" text-anchor="middle" alignment-baseline="middle">
1
</text>
</g>
<g class="dancer couple2 gal" transform="translate(56, 84) rotate(-270)">
<!--
 Dancer(couple_number=2, gender=G, direction=3, x=1, y=2) -
-->
<circle fill="none" stroke="black" r="10.0" x="0" y="0" />
<circle class="nose" r="3" cx="0" cy="-10.0" stroke="none" fill="black" />
<text class="dancer-label" stroke="black" x="0" y="3" text-anchor="middle" alignment-baseline="middle">
2
</text>
</g>
<g class="dancer couple4 guy" transform="translate(28, 112) rotate(-90)">
<!--
 Dancer(couple_number=4, gender=B, direction=1, x=0, y=3) -
-->
<rect fill="none" stroke="black" width="20" height="20" x="-10.0" y="-10.0" />
<circle class="nose" r="3" cx="0" cy="-10.0" stroke="none" fill="black" />
<text class="dancer-label" stroke="black" x="0" y="3" text-anchor="middle" alignment-baseline="middle">
4
</text>
</g>
<g class="dancer couple1 guy" transform="translate(56, 112) rotate(-90)">
<!--
 Dancer(couple_number=1, gender=B, direction=1, x=1, y=3) -
-->
<rect fill="none" stroke="black" width="20" height="20" x="-10.0" y="-10.0" />
<circle class="nose" r="3" cx="0" cy="-10.0" stroke="none" fill="black" />
<text class="dancer-label" stroke="black" x="0" y="3" text-anchor="middle" alignment-baseline="middle">
1
</text>
</g>
</g>
</svg>